name Walk9.mot
datacolumns 19
datarows 15
range 3.17000000 3.24000000
endheader

                time	   L_ground_force_vx	   L_ground_force_vy	   L_ground_force_vz	   L_ground_force_px	   L_ground_force_py	   L_ground_force_pz	   R_ground_force_vx	   R_ground_force_vy	   R_ground_force_vz	   R_ground_force_px	   R_ground_force_py	   R_ground_force_pz	   L_ground_torque_x	   L_ground_torque_y	   L_ground_torque_z	   R_ground_torque_x	   R_ground_torque_y	   R_ground_torque_z	
          3.17000000	         -7.53575501	         64.23134117	         -1.66963058	          0.00033333	          0.00000000	          0.00092115	         -0.00000000	          0.00000000	          0.00000000	          0.00000000	          0.00000000	          0.00000000	          0.00000000	          0.18080304	          0.00000000	          0.00000000	          0.00000000	          0.00000000	
          3.17500000	        -12.70215374	         96.98222703	         -2.74922618	         -0.05950293	          0.00000000	         -0.00854318	         -0.00000000	          0.00000000	          0.00000000	          0.00000000	          0.00000000	          0.00000000	          0.00000000	          0.24036715	          0.00000000	          0.00000000	          0.00000000	          0.00000000	
          3.18000000	        -18.19592801	        134.53373253	         -4.02559390	         -0.11551501	          0.00000000	         -0.01737830	         -0.00000000	          0.00000000	          0.00000000	         -0.00000000	          0.00000000	         -0.00000000	          0.00000000	          0.30591925	          0.00000000	          0.00000000	          0.00000000	          0.00000000	
          3.18500000	        -23.77352962	        175.36645067	         -5.46274331	         -0.16464940	          0.00000000	         -0.02511970	         -0.00000000	          0.00000000	          0.00000000	         -0.00000000	          0.00000000	         -0.00000000	          0.00000000	          0.37252849	          0.00000000	          0.00000000	          0.00000000	          0.00000000	
          3.19000000	        -29.36019512	        217.50715362	         -6.97107707	         -0.20533272	          0.00000000	         -0.03155581	         -0.00000000	         -0.00000000	          0.00000000	         -0.00000000	          0.00000000	         -0.00000000	          0.00000000	          0.43442311	          0.00000000	          0.00000000	          0.00000000	          0.00000000	
          3.19500000	        -35.13968805	        259.10567724	         -8.37728924	         -0.23718630	          0.00000000	         -0.03666950	         -0.00000000	         -0.00000001	         -0.00000000	         -0.00000000	          0.00000000	         -0.00000000	          0.00000000	          0.48686141	          0.00000000	          0.00000000	          0.00000000	          0.00000000	
          3.20000000	        -41.38219937	        298.76001826	         -9.44626781	         -0.26063671	          0.00000000	         -0.04056871	         -0.00000000	         -0.00000001	         -0.00000000	         -0.00000000	          0.00000000	         -0.00000000	          0.00000000	          0.52619186	          0.00000000	          0.00000000	          0.00000000	          0.00000000	
          3.20500000	        -48.25001156	        335.63206028	         -9.93846310	         -0.27659897	          0.00000000	         -0.04343349	          0.00000000	         -0.00000002	         -0.00000000	         -0.00000000	          0.00000000	         -0.00000000	          0.00000000	          0.54966403	          0.00000000	          0.00000000	         -0.00000000	          0.00000000	
          3.21000000	        -55.74669740	        369.45970373	         -9.66491379	         -0.28623555	          0.00000000	         -0.04547123	          0.00000000	         -0.00000002	         -0.00000000	         -0.00000000	          0.00000000	         -0.00000000	          0.00000000	          0.55529975	          0.00000000	          0.00000000	         -0.00000000	          0.00000000	
          3.21500000	        -63.79701736	        400.47266364	         -8.52696084	         -0.29077730	          0.00000000	         -0.04688276	          0.00000000	         -0.00000003	         -0.00000000	         -0.00000000	          0.00000000	         -0.00000000	          0.00000000	          0.54291500	          0.00000000	          0.00000000	         -0.00000000	          0.00000000	
          3.22000000	        -72.35118938	        429.21989162	         -6.53147046	         -0.29140517	          0.00000000	         -0.04784095	          0.00000000	         -0.00000004	         -0.00000000	         -0.00000000	          0.00000000	         -0.00000000	          0.00000000	          0.51538700	          0.00000000	          0.00000000	         -0.00000000	          0.00000000	
          3.22500000	        -81.39906029	        456.34704908	         -3.79244611	         -0.28918844	          0.00000000	         -0.04848186	          0.00000000	         -0.00000005	         -0.00000000	         -0.00000000	          0.00000000	         -0.00000000	          0.00000000	          0.47984407	          0.00000000	          0.00000000	         -0.00000000	          0.00000000	
          3.23000000	        -90.88137569	        482.40458018	         -0.52922039	         -0.28505297	          0.00000000	         -0.04890240	          0.00000001	         -0.00000006	         -0.00000000	         -0.00000000	          0.00000000	         -0.00000000	          0.00000000	          0.44849481	          0.00000000	          0.00000000	         -0.00000000	          0.00000000	
          3.23500000	       -100.60329663	        507.77504410	          2.97357873	         -0.27976622	          0.00000000	         -0.04916865	          0.00000001	         -0.00000007	         -0.00000000	         -0.00000000	          0.00000000	         -0.00000000	          0.00000000	          0.43669988	          0.00000000	          0.00000000	         -0.00000000	          0.00000000	
          3.24000000	       -110.25099593	        532.69519595	          6.45635663	         -0.27393919	          0.00000000	         -0.04932552	          0.00000001	         -0.00000007	         -0.00000000	         -0.00000000	          0.00000000	         -0.00000000	          0.00000000	          0.45954060	          0.00000000	          0.00000000	         -0.00000000	          0.00000000	
